<?xml version="1.0" encoding="iso-8859-1"?>
<!-- Generator: Adobe Illustrator 16.0.0, SVG Export Plug-In . SVG Version: 6.00 Build 0)  -->
<!DOCTYPE svg PUBLIC "-//W3C//DTD SVG 1.1//EN" "http://www.w3.org/Graphics/SVG/1.1/DTD/svg11.dtd">
<svg version="1.1" id="Capa_1" xmlns="http://www.w3.org/2000/svg" xmlns:xlink="http://www.w3.org/1999/xlink" x="0px" y="0px"
	 width="934.8px" height="934.8px" viewBox="0 0 934.8 934.8" style="enable-background:new 0 0 934.8 934.8;" xml:space="preserve"
	>
<g>
	<g>
		<path d="M714.2,275.4h2.5c36.899,0,71.199,11.1,99.8,30.1v-95.8H0v290c0,27.6,22.4,50,50,50h416.3c1.1-38.7,29.8-70.6,67.1-76.6
			v-16.9C533.399,356.5,614.5,275.4,714.2,275.4z M228.8,474.7c0,13.3-10.7,24-24,24H75c-13.3,0-24-10.7-24-24v-2.1
			c0-13.301,10.7-24,24-24h129.8c13.3,0,24,10.699,24,24V474.7z"/>
		<path d="M766.6,44.4H50c-27.6,0-50,22.4-50,50v32.2h816.6V94.4C816.6,66.8,794.2,44.4,766.6,44.4z"/>
		<path d="M816.6,472h52.3v-15.8c0-45.7-20.3-86.7-52.3-114.6c-26.7-23.3-61.7-37.4-99.8-37.4h-2.5c-83.9,0-152.1,68.2-152.1,152.1
			V472.1h52.3v-15.9c0-55,44.7-99.7,99.7-99.7h2.5c55,0,99.699,44.7,99.699,99.7L816.6,472L816.6,472z"/>
		<path d="M897.6,503.7c-4.1-1.1-8.399-1.7-12.8-1.7h-1.5h-14.4h-52.3l0,0H802.2h-14.4H643.2h-14.4h-14.4h-52.3h-14.3h-1.5
			c-4.4,0-8.7,0.601-12.8,1.7c-20.7,5.5-36.101,23.8-37.101,46c0,0.8-0.1,1.6-0.1,2.4v288.3c0,27.6,22.4,50,50,50h338.5
			c27.6,0,50-22.4,50-50V552C934.8,528.799,919,509.299,897.6,503.7z M778.1,665.799c-2.8,22.101-16.899,40.601-36.399,49.5v73.4
			c0,8.8-7.2,16-16,16h-20.301c-8.8,0-16-7.2-16-16v-73.4c-19.5-8.899-33.699-27.399-36.399-49.5c-0.3-2.6-0.5-5.199-0.5-7.899
			c0-2.2,0.1-4.4,0.3-6.5c0.5-5,1.6-9.8,3.2-14.4c8.6-24.6,32-42.2,59.5-42.2S766.399,612.4,775,637c1.6,4.601,2.7,9.4,3.2,14.4
			c0.199,2.1,0.3,4.3,0.3,6.5C778.6,660.6,778.399,663.2,778.1,665.799z"/>
	</g>
</g>
<g>
</g>
<g>
</g>
<g>
</g>
<g>
</g>
<g>
</g>
<g>
</g>
<g>
</g>
<g>
</g>
<g>
</g>
<g>
</g>
<g>
</g>
<g>
</g>
<g>
</g>
<g>
</g>
<g>
</g>
</svg>
