<?xml version="1.0" encoding="utf-8"?>
<!-- Generator: Adobe Illustrator 21.0.0, SVG Export Plug-In . SVG Version: 6.00 Build 0)  -->
<svg version="1.1" id="Capa_1" xmlns="http://www.w3.org/2000/svg" xmlns:xlink="http://www.w3.org/1999/xlink" x="0px" y="0px"
	 viewBox="0 0 482 482" style="enable-background:new 0 0 482 482;" xml:space="preserve">
<g>
	<g>
		<polygon points="182.8,275.5 167.2,284.5 167.2,446.7 307.7,365.6 307.7,203.4 		"/>
		<polygon points="208.3,130 154.3,98.7 9.9,182 64,213.3 		"/>
		<polygon points="298.5,182 236.3,146.6 92,229.9 100.3,234.2 154.3,265.3 208,234.4 		"/>
		<polygon points="81.1,289.5 55.3,276.2 55.3,235 2,204.3 2,365.3 141.4,445.8 141.4,284.8 81.1,250 		"/>
	</g>
</g>
<g>
	<path d="M478.7,150c-3.1-15.8-8.8-30-17.1-42.7c-8.2-12.7-18.9-23.7-32-33c-13.1-9.3-27.6-15.6-43.5-19c-14.9-3.2-30-3.4-45.2-0.8
		c-15.2,2.7-29.3,8-42.4,15.9L283,46.6c-2.4-3.8-5.7-5.3-10.1-4.4c-4.4,0.9-7.1,3.4-8,7.7l-14.5,68.3c-0.6,2.6-0.1,5.1,1.4,7.5
		c1.5,2.3,3.6,3.8,6.2,4.4l68.3,14.5c4.3,0.9,7.7-0.5,10.3-4.2c2.6-3.6,2.6-7.3,0.1-11L320.4,104c8.5-5.2,17.8-8.6,27.7-10.3
		c9.9-1.7,19.9-1.4,29.8,0.7c10.6,2.2,20.2,6.5,29,12.6c8.7,6.2,15.9,13.5,21.4,22c5.5,8.5,9.3,18,11.4,28.5c2.1,10.5,2,21-0.3,31.6
		c-2.2,10.6-6.5,20.2-12.6,29c-6.2,8.7-13.5,15.9-22,21.4c-8.5,5.5-18,9.3-28.5,11.4c-10.5,2.1-21,2-31.6-0.3
		c-12.1-2.6-25.8,35.3-8.3,39c15.9,3.4,31.7,3.5,47.4,0.4c15.8-3.1,30-8.8,42.7-17.1c12.7-8.2,23.7-18.9,33-32
		c9.3-13.1,15.6-27.6,19-43.5C481.7,181.5,481.9,165.7,478.7,150z"/>
</g>
</svg>
