<svg xmlns="http://www.w3.org/2000/svg" viewBox="0 0 512 512"><defs><style>.cls-1{fill:#f4f4f4;}.cls-2{fill:#423730;}.cls-3{opacity:0.2;}.cls-3,.cls-7{isolation:isolate;}.cls-4{fill:#536ba5;}.cls-5{fill:#394049;}.cls-6{fill:#c3c4c7;}.cls-7{fill:#fff;opacity:0.15;}</style></defs><title>lentes</title><g id="Capa_2" data-name="Capa 2"><g id="Layer_1" data-name="Layer 1"><path class="cls-1" d="M256,0C397.38,0,512,114.62,512,256S397.38,512,256,512,0,397.38,0,256,114.62,0,256,0Z"/><path class="cls-2" d="M134.22,291.19l-61.4,33.27A14.23,14.23,0,0,1,55.08,321l-6.63-8a8.6,8.6,0,0,1,3.1-13.33l71.63-32.18Z"/><path class="cls-3" d="M123.18,267.52,56,297.7a65.12,65.12,0,0,0,19.26,20.78c1.3.89,2.63,1.73,4,2.52l55-29.81Z"/><path class="cls-2" d="M377.78,291.19l61.41,33.27A14.23,14.23,0,0,0,456.92,321l6.63-8a8.6,8.6,0,0,0-3.1-13.33l-71.64-32.18Z"/><path class="cls-3" d="M388.82,267.52,456,297.7a65.12,65.12,0,0,1-19.26,20.78c-1.3.89-2.63,1.73-4,2.52l-55-29.81Z"/><path class="cls-4" d="M256,231.45c10.85,0,18,3.48,18.93,10.87q0,.79.1,1.57s0,0,0,.07h0c.84,10.8,4.55,20,6.52,24.92,6.87,17.08,16.11,30,28.25,39.36,15.32,11.87,35.12,17.89,58.84,17.89,18.77,0,42.73-1.66,61.53-14.6,17.53-12.07,27.94-31.7,31.82-60a73.37,73.37,0,0,0,.63-13.8h0c.48-10.35,8.35-13.5,15.09-14.42a7.51,7.51,0,0,0,6.53-6.86l.73-10a9.61,9.61,0,0,0-7.68-10.12,661.76,661.76,0,0,0-69.41-9.46c-19.94-1.57-60-1.57-80.11,1.77-30.58,3.83-58.47,9.61-71.77,9.61s-41.2-5.78-71.77-9.61c-20.09-3.34-60.17-3.34-80.11-1.77A661.23,661.23,0,0,0,34.7,196.3,9.61,9.61,0,0,0,27,206.42l.73,10a7.51,7.51,0,0,0,6.53,6.86c6.74.93,14.61,4.08,15.09,14.42h0a73.38,73.38,0,0,0,.63,13.8c3.88,28.32,14.29,48,31.82,60,18.8,12.94,42.76,14.6,61.53,14.6,23.72,0,43.51-6,58.84-17.89,12.14-9.41,21.38-22.28,28.25-39.36,2-4.9,5.68-14.13,6.52-24.92h0s0,0,0-.07q.06-.78.1-1.57C238,234.93,245.15,231.45,256,231.45Z"/><path class="cls-5" d="M143.36,205c-28,0-80.33-3.27-73.88,43.88s31.56,57.63,73.88,57.63,59.53-21.76,68.86-44.93S228,205,143.36,205Z"/><path class="cls-3" d="M143.36,205c-27.05,0-76.92-3.06-74.32,39.4C71.4,208.27,117.67,211,143.36,211c56.45,0,72.37,14.86,74,31.63C219,223.58,206.54,205,143.36,205Z"/><path class="cls-5" d="M368.64,205c28,0,80.33-3.27,73.88,43.88S411,306.47,368.64,306.47s-59.53-21.76-68.86-44.93S284,205,368.64,205Z"/><path class="cls-3" d="M368.64,205c27.05,0,76.92-3.06,74.32,39.4C440.6,208.27,394.34,211,368.64,211c-56.45,0-72.37,14.86-74,31.63C293,223.58,305.46,205,368.64,205Z"/><path class="cls-6" d="M49.73,218.17a7.37,7.37,0,0,1-1.12-14.65l4.71-.73a7.37,7.37,0,1,1,2.26,14.56l-4.71.73A7.25,7.25,0,0,1,49.73,218.17Z"/><path class="cls-6" d="M462.27,218.17a7.35,7.35,0,0,1-1.14-.09l-4.71-.73a7.37,7.37,0,1,1,2.26-14.56l4.71.73a7.37,7.37,0,0,1-1.12,14.65Z"/><path class="cls-7" d="M143.36,205c-28,0-80.33-3.27-73.88,43.88,1.61,11.74,4.37,21.2,8.27,28.8l72.6-72.6C148.09,205,145.76,205,143.36,205Z"/><path class="cls-7" d="M430.13,214.77,342,302.91a92,92,0,0,0,26.64,3.57c42.32,0,67.42-10.48,73.88-57.63C444.87,231.64,439.39,221.16,430.13,214.77Z"/></g></g></svg>