<svg xmlns="http://www.w3.org/2000/svg" viewBox="0 0 2620.2 2620.2"><defs><style>.cls-1{fill:#fff;}.cls-2{fill:#feee00;}.cls-3{fill:#15216d;}.cls-4{fill:#020202;}</style></defs><title>logo-icon</title><g id="Capa_2" data-name="Capa 2"><g id="Capa_1-2" data-name="Capa 1"><circle class="cls-1" cx="1310.1" cy="1310.1" r="1310.1"/><path class="cls-2" d="M2592.1,1526.1H1319.16c-5.33,0-10.67-.06-16,.08-2.62.07-4-.6-4-3.55.09-13.5.07-27,0-40.49,0-3.12,1.14-4.38,4.47-4.21,5.49.28,11,.07,16.5.07H2586.1c2,0,4,.06,6,.09Z"/><path class="cls-3" d="M1174.1,864.1c-.06,14.66-.21,29.31-.12,44,0,3-.56,4.39-3.78,3.86a25,25,0,0,0-4,0H90.58c-2.16,0-4.32.13-6.48.2,0-15,.07-30-.07-45,0-2.5.57-3.48,3.07-3a8.24,8.24,0,0,0,1.5,0Z"/><path class="cls-4" d="M1305.18,1194.85q0-107.47-.12-214.95c0-5,1.41-5.88,6.06-5.85,43,.29,86-.06,129,.56,34.75.5,69.35,2.89,103.11,12.37,59.89,16.81,102,53.72,125.7,111.2,14.34,34.79,19.54,71.15,17.5,108.73-1.92,35.32-10.12,68.78-27.41,99.77-27.07,48.53-67.84,79.68-120.94,95.34-31.86,9.4-64.51,12.66-97.5,12.91-43.32.33-86.64,0-130,.19-4.22,0-5.53-.75-5.52-5.33Q1305.31,1302.33,1305.18,1194.85Zm67.85.6v94q0,42,0,84c0,2.2-.29,4.06,2.84,4.73,30.2,6.54,60.52,10.88,91.47,6,21.38-3.38,41.58-10,59.74-22,30.73-20.22,51.81-48.34,65.09-82.26,17.81-45.48,19.06-92.35,9.43-139.7-6-29.73-18.38-56.84-38.13-80-30.93-36.3-71.34-52.95-118.31-55.07-22.93-1-45.41,1.91-67.63,7.6-3.79,1-4.58,2.16-4.57,5.73Q1373.11,1106.95,1373,1195.45Z"/><path class="cls-4" d="M2430.62,1202.91,2585.68,1415h-21.06c-17.5,0-35,0-52.5,0a6,6,0,0,1-5.72-2.79q-43.6-60.18-87.43-120.18-27.58-37.88-55.09-75.82c-1.71-2.36-3.44-3.46-6.47-3.4-10.66.22-21.34.35-32,0-4-.12-4.49,1.2-4.48,4.7.1,63.83,0,127.66.19,191.49,0,4.58-.72,6.17-5.77,6.07-19.16-.35-38.33-.23-57.49-.07-3.52,0-4.78-.52-4.78-4.52q.19-214.49.11-429c0-2.26-.73-4.46,3.2-4.51,41-.56,81.91-3.13,122.91-3,28.56.07,57,2.61,83.71,13.24,39.59,15.77,65.38,44.78,71.54,87.39,6.91,47.8-12.55,88.82-59.32,112.32A205.47,205.47,0,0,1,2430.62,1202.91ZM2321,1098.12c0,25,0,50,0,75,0,3.94-1.74,9.15.79,11.44,2.13,1.93,7.26.55,11.05.62,25.19.47,49.66-3,73-13.05,18.73-8,33.94-20.07,43.12-38.69,8-16.15,9.26-33.51,7.89-51.07-1.19-15.25-5.47-29.73-14.44-42.36-16.91-23.82-41.05-33.64-69.36-35-16.57-.77-32.76,2.21-49,5.09-3.46.61-3.1,2.66-3.1,5Q2321,1056.62,2321,1098.12Z"/><path class="cls-4" d="M489,1260.91c0,27.66,0,55.31.06,83,0,3.41-.34,5.3-4.06,7.32-22.15,12-43.81,25-65.91,37.12-16.92,9.29-35.45,14.62-54,19.54a236.7,236.7,0,0,1-53.61,8c-22,.66-43.9-1.31-65.25-7-72.47-19.22-117.86-67.26-142.93-136.11C91,1239,88.15,1203.7,91.3,1168.08c4.43-50,21.12-95.4,53.12-134.48,30.26-37,69.35-60.32,115.31-72.36a208.24,208.24,0,0,1,75.14-5.94c36.32,3.85,68,18,94.66,43.3,20.13,19.06,36,41.28,49.74,65.17,1.2,2.08.72,2.79-1,3.82-3.72,2.19-7.45,4.38-11,6.88-2.08,1.48-2.74.45-3.81-1.1a355.56,355.56,0,0,0-32.64-40.25c-23.63-25.24-51.63-42.87-86.38-47.42-49.34-6.46-93.12,5.4-127.89,42.64-18.17,19.46-28.56,43.38-35.43,68.8-10.7,39.59-12.8,80-10.2,120.72,1.92,30.15,8.75,59,23,85.81,21.44,40.43,54.67,64.58,99.62,73.67,37.48,7.58,71.74-.51,104.6-18.11,5.84-3.13,11.66-6.32,17.54-9.37a4.16,4.16,0,0,0,2.53-4.28c-.08-34.33.19-68.66-.25-103-.1-7.67-6.3-13-12-17.31-9.37-7.11-20.72-8.37-32.07-9.15-4.11-.28-9.73,1.67-11.91-.9s-.75-7.89-.77-12c0-9.5.12-19-.07-28.49-.06-2.91.8-3.6,3.61-3.59q59.74.13,119.48,0c3.7,0,3.86,1.48,3.85,4.35q-.11,42.74,0,85.48Z"/><path class="cls-4" d="M869,1078.64c0,3.5,0,5.43,0,7.37q0,162,.09,324c0,4.21-1,5.29-5.17,5.12-8.49-.35-17-.28-25.49,0-3.6.11-4.31-1-4.31-4.51q.13-142,0-284,0-73.75-.08-147.5c0-3.71.6-5.21,4.79-5.06,9.49.36,19,.21,28.49,0a6.83,6.83,0,0,1,5.94,2.8q32,39.25,64.09,78.44,39.47,48.29,79,96.57l115.13,140.9c1.22-1.92.65-3.91.66-5.74q.05-153.75-.09-307.5c0-4.74,1.4-5.69,5.74-5.51,8.15.34,16.34.36,24.49,0,4.15-.19,4.83,1.29,4.82,5q-.17,85.25-.08,170.5,0,133.5.1,267c0,4.21-.83,5.25-5.3,5.67-8.37.8-13.48-2.41-18.66-8.81-35.69-44.11-71.81-87.87-107.76-131.77q-63.7-77.78-127.35-155.6C895.41,1110.65,882.7,1095.27,869,1078.64Z"/><path class="cls-4" d="M1740.53,1415c3.06-7.18,5.87-13.86,8.75-20.5q68.95-158.57,137.91-317.13,23.66-54.42,47.15-108.92c1.3-3,2.85-4.12,6.4-4.53,7.82-.9,11.29,2.15,14.48,9.29q57.51,128.91,115.73,257.5,40.59,90.22,81.12,180.47c1.39,3.08,1.21,3.87-2.38,3.85q-40.49-.17-81,0c-2.59,0-3.73-.78-4.54-3.24-15.73-47.4-36.74-92.65-56.25-138.52-1-2.46-2.22-3.39-5.05-3.39q-78.24.17-156.48,0c-3.06,0-4.18,1.15-5.3,3.74q-29.52,68.45-59.16,136.85c-1.4,3.25-2.93,4.74-6.82,4.62C1763.83,1414.8,1752.53,1415,1740.53,1415Zm253.67-175.92c-.6-1.68-1-2.91-1.47-4.1q-32.23-77.2-64.5-154.38c-.54-1.28-.46-3.46-2.2-3.4s-1.58,2.22-2.14,3.52q-31.37,72.78-62.7,145.57c-1.78,4.13-3.4,8.32-5.22,12.79Z"/><path class="cls-4" d="M686,1195.57q0,107.7.1,215.4c0,4.07-.82,5.23-5.06,5.17-19.65-.26-39.31-.2-59,0-3.59,0-5-.48-5-4.69q.2-216.15,0-432.3c0-3.74.65-5.1,4.8-5.05,19.65.25,39.32.31,59,0,4.8-.08,5.24,1.62,5.23,5.64Q685.95,1087.62,686,1195.57Z"/><path class="cls-4" d="M1355.26,1613c10.07.47,19.61,2.17,27.61,9.29,9.71,8.64,9.06,27.57.6,37.9-6.68,8.15-15.18,13.9-24.35,18.71-3.13,1.64-3.07,3-1.06,5.51,8.46,10.56,18.73,19.36,28,29.14,1.67,1.77,2.33,1.38,3.51-.66a45.91,45.91,0,0,0,6.63-26.07c-.17-3.11-.63-6.64,3.43-7.88,4.72-1.43,9.51-1.61,13.86,1.07,1.35.84,1.64,2.74,1.51,4.54-.93,13.38-3.35,26.37-11,37.73-2,3-2,4.64,1.2,6.51,5.91,3.45,10.52,9.38,18.22,9.34,1.86,0,2.19,1.69,2.28,2.77a95.82,95.82,0,0,1,.22,10c0,1.62-1.45,2-2.7,2.51a14.13,14.13,0,0,1-11.6-.39,79.32,79.32,0,0,1-18.48-11.7c-2.63-2.26-4.37-2-6.74-.22-7.76,5.88-16.31,10.42-25.88,12.18-17.79,3.26-35.1,2.31-48.83-11.29-14.64-14.51-12.63-40.28,3.51-53.13,3.9-3.1,7.77-6.26,11.85-9.09,2.21-1.54,1.58-2.28.25-4.08-5.5-7.44-10.89-14.79-12.5-24.48-3-18.14,9.06-34.91,27.45-37C1346.59,1613.74,1350.9,1613.44,1355.26,1613Zm-6.95,125c9.42,1.49,17.31-2.59,25-7.34,3.18-2,2.59-3.48-.06-5.73-10.51-8.93-20.52-18.41-29.21-29.17-5.15-6.38-5.26-6.65-11.57-1.33-9.74,8.22-14.37,22-7.35,33.31C1330.45,1736.37,1338.5,1739.2,1348.32,1738Zm-14.38-93c-.12,9.45,6.71,15.83,10.55,23.53.43.86,1.42.49,2.21.08,10-5.22,19.54-10.93,23.81-22.14,1.7-4.46.58-8.68-2.67-12.39-4.94-5.63-11.47-5.1-17.95-5C1339.28,1629.13,1334,1634.36,1333.94,1645Z"/><path class="cls-4" d="M545.41,1681.16c22.84,9.8,31.08,34.2,18.2,53.35-8.67,12.89-21.88,17.86-36.82,18.39-12.31.43-24.64.18-37,.1-6.48,0-9.64-3.33-9.64-9.93q0-56.94,0-113.89c0-7.13,3-10.1,10-10,15,.23,30-1.06,44.81,1.74,13.5,2.55,22.08,11,24.93,24.46,3,14-1.64,26.5-12.69,34.21C546.79,1679.95,546.34,1680.38,545.41,1681.16ZM500,1713.93c0,6.33.13,12.66-.06,19-.08,2.64.73,3.37,3.33,3.32,8.32-.16,16.65,0,25-.07,11-.06,19.42-7.2,20.8-17.59,1.63-12.26-4.66-22.94-15.64-25.48-10.47-2.43-21.2-.6-31.8-1-2.2-.09-1.57,1.72-1.58,2.89C500,1701.28,500,1707.61,500,1713.93Zm0-58.61c0,5.49.2,11-.07,16.46-.17,3.32.5,4.73,4.21,4.48,5.13-.35,10.31.07,15.46-.1,19-.63,24.64-13.63,20.42-29.7-1.6-6.11-6.14-9.38-12.47-10.54-8.28-1.52-16.58-.48-24.86-.92-2.29-.12-2.77.79-2.73,2.87C500.11,1643.68,500,1649.5,500,1655.32Z"/><path class="cls-4" d="M1868.15,1690.12c.18-15.57,1.85-28.2,6.91-40.15,8.05-19,23.19-29.1,43-31.78,19.07-2.57,37.68-1,52.68,13.28,7.79,7.42,12.2,16.94,14.44,27.23,4.4,20.15,3.86,40.18-2.9,59.89-7.16,20.88-22.34,31.84-43.45,35.38a70.33,70.33,0,0,1-39-4.7c-17.66-7.23-25.88-21.49-29.5-39C1868.78,1702.81,1868.65,1695.07,1868.15,1690.12Zm21-2.12c0,4.15-.38,8.68.07,13.13,1.58,15.85,9.93,31.75,27.19,35.8,20.14,4.73,43.23-3.7,48.76-28.8,2.91-13.2,4.1-26.28,1.71-39.5-1.65-9.16-4.43-18.11-11.34-25-10.26-10.16-23.18-11.38-36.23-8.87-13.85,2.66-23.21,11.41-27.32,25.27A79,79,0,0,0,1889.17,1688Z"/><path class="cls-4" d="M722.08,1684.78c-.9,12.62-1.11,25.72-7.06,38-7.32,15.06-18.17,25.46-34.79,29.55-20.39,5-39.76,3.38-56.9-9.42-9.42-7-14.47-17.39-17.55-28.76-5.13-19-5-38,1-56.5,10-30.73,33.59-42.11,63.77-40.14,14.42.94,26.77,5.68,36.72,16.39,7.17,7.72,10.84,17,12.6,27.12A167.85,167.85,0,0,1,722.08,1684.78Zm-99.21,3.41c-.32,3.37.75,9.3,1.44,15.24,1.12,9.78,3.81,19.18,11.54,25.77,11.77,10,25.52,11.28,39.83,6.68,14.52-4.67,21.36-16.06,24.52-30.07,2.74-12.15,2.56-24.45.84-36.73-1.24-8.84-4-17.12-10.09-23.87-10.42-11.59-24-12.67-38.12-10.4-9.15,1.47-16,6.76-21.2,14.46C624.17,1660.32,623.27,1672.83,622.87,1688.19Z"/><path class="cls-4" d="M1033.17,1617.08c18-.07,33.89,4.51,45.45,19.38,7.27,9.34,10.48,20.43,12.15,31.73a103.26,103.26,0,0,1-5.46,52.9c-7.65,20-23.17,29.44-43.21,32.9a67.59,67.59,0,0,1-39.92-5.2c-16.42-7.4-24.73-21.36-27.8-38.23-3.33-18.28-2.95-36.53,2.44-54.74,5.81-19.63,24.4-36,44.91-37.78Zm38,68.22c-.12-5.64.39-11.31-.94-16.9-2-8.52-3.32-17.4-9.87-24-12-12-26.92-12.85-41.76-8.57-16.21,4.68-22.65,18.35-25.37,33.87a97.69,97.69,0,0,0,0,32.3c2.79,17.63,11.06,32.44,31.07,35.72,17.15,2.82,39-5.66,44.06-26.79C1070.33,1702.46,1071.68,1694,1071.14,1685.3Z"/><path class="cls-4" d="M1588.31,1688.63c14.51,9.48,16.62,26.32,23.52,40.35a139.3,139.3,0,0,1,6.63,17.12c1.73,5.13.7,6.35-4.73,6.94-1.8.19-3.59.89-5.36.78-5.29-.33-8.59-2.46-10.59-8.18-4.42-12.64-10-24.88-15.13-37.26-4.42-10.58-12.9-14.48-23.84-14.39-9.78.09-9.78,0-9.78,9.64q0,20.24,0,40.48c0,7.76-2.18,9.92-9.9,9.86-8.06-.06-9.95-2.05-9.94-10.4q0-56.23,0-112.46c0-9.54,2.32-11.94,11.63-11.94,9.5,0,19,.1,28.49,0a54.65,54.65,0,0,1,28,7.35c9.15,5.16,15.88,20.65,14.5,31.49-1.71,13.42-9.19,22.3-20.65,28.48-.86.46-1.69,1-2.51,1.5C1588.52,1688,1588.49,1688.26,1588.31,1688.63ZM1549,1656.73c0,6.33.06,12.65,0,19,0,1.81.22,2.61,2.36,2.53,6.15-.21,12.41.52,18.45-.31,13.38-1.84,22.69-6.38,21.44-24-.61-8.61-4.7-14.43-12.9-16.88-8.9-2.67-18.06-1.92-27.16-2.11-2.42-.05-2.19,1.22-2.18,2.78C1549,1644.07,1549,1650.4,1549,1656.73Z"/><path class="cls-4" d="M2109.18,1685.8q0-27.74,0-55.47c0-8.49,2.6-11.15,10.9-11.15h56.47c5.69,0,7.51,2.06,7.47,8.37,0,5.66-1.79,7.48-7.29,7.48-14.66,0-29.32.1-44-.08-3,0-3.88.63-3.81,3.78.23,11,.18,22,0,33,0,2.85.79,3.57,3.58,3.53,12.49-.15,25,.14,37.48-.18,4.3-.11,5.58,1.94,6,5.42a29.74,29.74,0,0,1,0,5.49c-.27,3.4-1.69,5.21-5.64,5.14-12.49-.23-25,.07-37.48-.18-3.51-.07-3.94,1.17-3.91,4.18q.22,18.49,0,37c0,3.15.64,4.21,4,4.16,14.66-.2,29.32,0,44-.14,7.22-.09,7.26,2.8,7.91,8.68s-2.13,8.23-7.79,8.23q-28.49,0-57,0c-7.88,0-10.9-3-10.91-10.75Q2109.15,1714,2109.18,1685.8Z"/><path class="cls-4" d="M1659.17,1686.1q0-29,0-58c0-6.61,2.35-8.93,9-8.93q29.24,0,58.48,0c5.27,0,6.34,1.43,6.35,8.15,0,6.43-.93,7.64-6.15,7.65-15,0-30,.15-45-.06-3.39,0-4,1-3.94,4.08.19,11,.17,22,0,33,0,2.6.56,3.29,3.22,3.25,12.83-.16,25.65-.07,38.48-.06,5,0,6.27,1.57,6.37,7.55.11,6.34-1.32,8.26-6.46,8.28-12.49,0-25,.09-37.48-.06-2.94,0-4.25.32-4.17,3.86.27,12.32.32,24.66,0,37-.1,4,1.32,4.5,4.77,4.45,14.66-.18,29.32-.09,44-.06,5.68,0,7.37,2,7.36,8.63,0,6.32-1.61,8.18-7.23,8.19q-29,0-58,0c-7.32,0-9.64-2.32-9.64-9.43Q1659.16,1714.84,1659.17,1686.1Z"/><path class="cls-4" d="M900.84,1617c10.23.19,19.59,3.28,28.5,8,3.88,2,5.37,13.89,2.06,16.49-2,1.58-3.93.5-6-.52-8.3-4.15-16.62-8.3-26.31-7.9-11.4.47-20.27,9.3-19,19.77,1,7.92,6,13.46,13.15,16.95,8.63,4.21,17.37,8.19,25.89,12.61,21.64,11.23,25.07,29,17.3,49.76-4.1,10.95-14.13,16.92-25.2,20.14-16.89,4.92-33.16,3.29-48.22-6.18-5.76-3.62-7.13-9.23-5-15.59,1.15-3.39,2.75-3.92,5.91-2.31,7.65,3.91,15.09,8.29,23.87,9.52,7.09,1,13.93.56,20.51-2.23,7-3,10.91-8.5,11.73-16,.79-7.28-1.26-13.43-7.71-17.7a155.56,155.56,0,0,0-24.07-12.83c-13.9-6-24.9-14.84-27.4-30.87a34.86,34.86,0,0,1,30.52-40C894.58,1617.7,897.71,1617.35,900.84,1617Z"/><path class="cls-4" d="M1165.25,1617c11.18.73,20.33,2.68,28.76,7.39,4.84,2.7,7,12.13,3.73,16.58-1.74,2.35-3.87,1.35-5.76.24a83.9,83.9,0,0,0-15.53-6.6c-5.31-1.82-10.7-2.39-16.13-.59-7.43,2.46-13.7,6-14.26,15a21.17,21.17,0,0,0,12.12,20.11c8.76,4.33,17.87,8,26.28,13,7.12,4.25,14.65,8.12,18,16.49,7.77,19.47,3.34,41.49-19,51.29-16.09,7.06-32.26,6.26-48.31-.09-9.82-3.89-13.85-11.29-11.28-19.2,1.24-3.83,3-4.12,6.23-2.35,10.25,5.53,20.65,11,32.82,9.86,15.22-1.48,24.14-9,23.22-23.43-.6-9.36-7.57-13.71-14.71-17.33-6.47-3.28-13-6.52-19.6-9.58-12.82-6-22.7-14.85-25-30-3.18-20.87,10.53-36,29.69-39.49C1159.9,1617.64,1163.36,1616.7,1165.25,1617Z"/><path class="cls-4" d="M2277.18,1718.62c0-10.43-5.51-17.69-14.94-21.78-8-3.49-16.19-6.93-23.66-11.43-16.37-9.86-24.23-25.3-18.42-44.42,4.07-13.37,14.59-19.76,27.34-22.67,13.14-3,25.7-.21,37.62,5.71,4.66,2.31,7.09,12.76,4.07,16.93-1.82,2.51-3.82,1.09-5.66.09a72.33,72.33,0,0,0-19.36-7.51,25.29,25.29,0,0,0-19.14,3.36c-8.06,5-9.46,18.06-3.38,25.44,4.78,5.8,11.33,8.53,17.76,11.52,8.58,4,17.08,8.07,24.77,13.69,12.5,9.14,17.09,27.73,11,42-6.58,15.37-19.13,22-34.44,24.41-14.31,2.26-28,.24-40.4-8.1-4.41-3-7.2-12.11-4.64-16.66,1.58-2.82,3.51-1.94,5.86-.76,10.23,5.14,20.48,10.36,32.46,9.7a30.91,30.91,0,0,0,17.17-5.78C2276.12,1728.7,2278.12,1723.62,2277.18,1718.62Z"/><path class="cls-4" d="M1776.17,1684.32q0-29,0-58c0-6.8,1.87-8.17,10.93-8.16,7,0,8.93,1.77,8.93,8.09,0,35,.09,70-.11,105,0,4.3,1.19,5.12,5.21,5,13-.27,26-.11,39-.1,5.42,0,6.82,1.61,6.91,7.76.1,6.57-1.73,9.06-7,9.07q-27,.08-54,0c-6.83,0-9.87-3.21-9.88-10.21Q1776.13,1713.56,1776.17,1684.32Z"/><path class="cls-4" d="M764.17,1683.63c0-19.48.22-39-.16-58.42-.09-4.67,2-6.26,5.62-6.81a28.12,28.12,0,0,1,7.94,0c3.75.51,5.63,2.14,5.6,6.78-.28,35.29-.08,70.58-.25,105.87,0,4,.65,5.34,5,5.24,13.48-.33,27,.06,40.44-.21,3.8-.08,5.11,1.71,5.53,4.74a24.64,24.64,0,0,1,0,7c-.48,3.18-2.07,5.29-5.9,5.27-18.31-.11-36.62,0-54.93-.07-6.3,0-8.92-3.08-8.94-9.94Q764.13,1713.34,764.17,1683.63Z"/><path class="cls-4" d="M2041.18,1673.48q0-22.23,0-44.46c0-9.24,3.54-12.26,12.71-10.83,6,.93,7.14,2.3,7.14,8.46q0,45,0,89.92a65.31,65.31,0,0,1-4,22.95c-3.12,8.33-10.2,12.36-18.4,14.45-8.58,2.19-16.75.71-24.5-3.46-4.06-2.19-5.8-13.12-2.55-16.38,1.88-1.89,3.75-1.56,5.79-.14,4.11,2.86,8.75,3.61,13.68,3.24,5.69-.42,8-2.41,9.12-7.92a56.46,56.46,0,0,0,1.07-11.86C2041.14,1702.78,2041.18,1688.13,2041.18,1673.48Z"/></g></g></svg>