<svg xmlns="http://www.w3.org/2000/svg" viewBox="0 0 512 512"><defs><style>.cls-1{fill:#f4f4f4;}.cls-2{fill:#d5dcec;}.cls-3{fill:#aa6455;}.cls-4{fill:#9b5a50;}.cls-5{fill:#e4eaf6;}.cls-6{fill:#c7cfe2;}.cls-7{fill:#fff;}.cls-8{fill:#5b5d6e;}.cls-9{fill:#959cb3;}</style></defs><title>mision_1</title><g id="Capa_2" data-name="Capa 2"><g id="Layer_1" data-name="Layer 1"><path class="cls-1" d="M256,0C397.38,0,512,114.62,512,256S397.38,512,256,512,0,397.38,0,256,114.62,0,256,0Z"/><path class="cls-2" d="M401.45,279H386.14V233h15.31a7.66,7.66,0,0,1,7.66,7.66v30.62A7.66,7.66,0,0,1,401.45,279Z"/><path class="cls-2" d="M182.6,79.93,176.75,136l-43.23,35.75,28-84a11.48,11.48,0,0,1,10.89-7.85H182.6Z"/><path class="cls-2" d="M314.09,79.93,319.94,136l43.23,35.75-28-84a11.48,11.48,0,0,0-10.89-7.85H314.09Z"/><path class="cls-2" d="M314.09,432.07,319.94,376l43.23-35.75-28,84a11.48,11.48,0,0,1-10.89,7.85Z"/><path class="cls-2" d="M182.6,432.07,176.75,376l-43.23-35.75,28,84a11.48,11.48,0,0,0,10.89,7.85Z"/><path class="cls-3" d="M308.78,110.55H187.91a7.65,7.65,0,0,1-7.62-8.42l5.44-54.35A15.31,15.31,0,0,1,201,34h94.77A15.31,15.31,0,0,1,311,47.79l5.44,54.35A7.66,7.66,0,0,1,308.78,110.55Z"/><path class="cls-4" d="M294.28,95.24H202.41a7.66,7.66,0,0,1-7.66-7.66h0a7.66,7.66,0,0,1,7.66-7.66h91.86a7.66,7.66,0,0,1,7.66,7.66h0A7.66,7.66,0,0,1,294.28,95.24Z"/><path class="cls-3" d="M187.91,401.45H308.78a7.65,7.65,0,0,1,7.62,8.42L311,464.21A15.31,15.31,0,0,1,295.73,478H201a15.31,15.31,0,0,1-15.23-13.79l-5.44-54.35A7.66,7.66,0,0,1,187.91,401.45Z"/><path class="cls-4" d="M202.41,416.76h91.86a7.66,7.66,0,0,1,7.66,7.66h0a7.66,7.66,0,0,1-7.66,7.66H202.41a7.66,7.66,0,0,1-7.66-7.66h0A7.66,7.66,0,0,1,202.41,416.76Z"/><circle class="cls-5" cx="248.34" cy="256" r="145.45"/><circle class="cls-6" cx="248.34" cy="256" r="130.14"/><circle class="cls-7" cx="248.34" cy="256" r="114.83"/><path class="cls-8" d="M309.59,250.26h-55.5V202.41a5.74,5.74,0,0,0-11.48,0v47.84H233a5.74,5.74,0,1,0,0,11.48h9.57v9.57a5.74,5.74,0,1,0,11.48,0v-9.57h55.5a5.74,5.74,0,0,0,0-11.48Z"/><circle class="cls-6" cx="248.34" cy="256" r="11.48"/><path class="cls-8" d="M156.48,261.74h-7.66a5.74,5.74,0,1,1,0-11.48h7.66a5.74,5.74,0,0,1,0,11.48Z"/><path class="cls-8" d="M347.86,261.74h-7.66a5.74,5.74,0,0,1,0-11.48h7.66a5.74,5.74,0,1,1,0,11.48Z"/><path class="cls-8" d="M248.34,361.26a5.74,5.74,0,0,1-5.74-5.74v-7.66a5.74,5.74,0,1,1,11.48,0v7.66A5.74,5.74,0,0,1,248.34,361.26Z"/><path class="cls-8" d="M248.34,169.88a5.74,5.74,0,0,1-5.74-5.74v-7.66a5.74,5.74,0,1,1,11.48,0v7.66A5.74,5.74,0,0,1,248.34,169.88Z"/><path class="cls-9" d="M203.62,345a5.78,5.78,0,0,1-7.86,2.13,5.71,5.71,0,0,1-2.12-7.81l0-.07a5.74,5.74,0,0,1,9.94,5.74Z"/><path class="cls-9" d="M303.14,172.67a5.78,5.78,0,0,1-7.86,2.13,5.71,5.71,0,0,1-2.12-7.81l0-.07a5.74,5.74,0,0,1,9.94,5.74Z"/><path class="cls-9" d="M293.16,345a5.78,5.78,0,0,0,7.86,2.13,5.71,5.71,0,0,0,2.12-7.81l0-.07a5.74,5.74,0,0,0-9.94,5.74Z"/><path class="cls-9" d="M193.65,172.67a5.78,5.78,0,0,0,7.86,2.13,5.71,5.71,0,0,0,2.12-7.81l0-.07a5.74,5.74,0,0,0-9.94,5.74Z"/><path class="cls-9" d="M159.35,211.23a5.78,5.78,0,0,1-2.13-7.86,5.71,5.71,0,0,1,7.81-2.12l.07,0a5.74,5.74,0,0,1-5.74,9.94Z"/><path class="cls-9" d="M331.72,310.74a5.78,5.78,0,0,1-2.13-7.86,5.71,5.71,0,0,1,7.81-2.12l.07,0a5.74,5.74,0,0,1-5.74,9.94Z"/><path class="cls-9" d="M159.35,300.77a5.78,5.78,0,0,0-2.13,7.86,5.71,5.71,0,0,0,7.81,2.12l.07,0a5.74,5.74,0,0,0-5.74-9.94Z"/><path class="cls-9" d="M331.72,201.25a5.78,5.78,0,0,0-2.13,7.86,5.71,5.71,0,0,0,7.81,2.12l.07,0a5.74,5.74,0,0,0-5.74-9.94Z"/></g></g></svg>