<svg xmlns="http://www.w3.org/2000/svg" viewBox="0 0 512 512"><defs><style>.cls-1{fill:#f4f4f4;}.cls-2{fill:#596c76;}.cls-3{fill:#465a61;}.cls-4{fill:#ff5093;}.cls-5{fill:#f23055;}.cls-6{fill:#ffb64c;}.cls-7{fill:#ae2538;}.cls-8{fill:#ffd396;}</style></defs><title>vision</title><g id="Capa_2" data-name="Capa 2"><g id="Layer_1" data-name="Layer 1"><path class="cls-1" d="M256,0C397.38,0,512,114.62,512,256S397.38,512,256,512,0,397.38,0,256,114.62,0,256,0Z"/><path class="cls-2" d="M355.14,160.92v22H311.08v-22c0-26.44-21.37-77.84-55.08-77.84s-55.08,51.41-55.08,77.84v22H156.86v-22C156.86,106.06,201.14,39,256,39S355.14,106.06,355.14,160.92Z"/><path class="cls-3" d="M355.14,160.92v22H311.08v-22c0-26.44-21.37-77.84-55.08-77.84V39C310.86,39,355.14,106.06,355.14,160.92Z"/><polygon class="cls-4" points="421.97 415.02 90.03 415.02 134.09 171.94 178.89 171.94 200.92 193.97 244.98 171.94 377.91 171.94 421.97 415.02"/><polygon class="cls-5" points="421.97 415.02 256 415.02 256 171.94 377.91 171.94 421.97 415.02"/><rect class="cls-6" x="200.92" y="227.02" width="22.03" height="44.06"/><path class="cls-7" d="M377.91,171.94l45.4,81.66c15.89,25.82,19.92,50.56,20.7,72.56,1.75,49.27-21,85.56-22,88.83-23.23-40-44.07-89.21-44.07-151.19Z"/><path class="cls-5" d="M134.09,171.94,88.7,253.6C72.81,279.41,68.78,304.15,68,326.16,66.25,375.42,89,411.72,90,415c23.23-40,44.07-89.21,44.07-151.19Z"/><path class="cls-8" d="M211.94,326.16a33,33,0,1,1,33-33A33.08,33.08,0,0,1,211.94,326.16Z"/><rect class="cls-8" x="178.89" y="171.94" width="66.09" height="66.09"/></g></g></svg>